<svg width="43" height="45" viewBox="0 0 43 45" fill="none" xmlns="http://www.w3.org/2000/svg">
<g id="Standard Collection 27" filter="url(#filter0_d_2_2571)">
<path id="Vector" d="M35.1473 13.6477L35.1255 13.626C35.1238 13.6247 35.1224 13.6231 35.1215 13.6212L21.5006 0L7.87983 13.6209C7.87826 13.6225 7.8758 13.6256 7.8758 13.6256L7.85333 13.6474C5.77053 15.7419 4.44759 18.4725 4.09482 21.4052C3.74205 24.3379 4.3797 27.3044 5.90639 29.8331C7.43309 32.3619 9.76122 34.3077 12.5207 35.3612C15.2802 36.4147 18.3126 36.5157 21.136 35.6477C21.3735 35.5751 21.6275 35.5751 21.8651 35.6477C24.6882 36.5153 27.7205 36.4144 30.4798 35.3607C33.2391 34.307 35.567 32.3613 37.0936 29.8328C38.6202 27.3042 39.2579 24.3379 38.9053 21.4054C38.5526 18.4728 37.2299 15.7422 35.1473 13.6477ZM12.7232 22.6298C12.6569 22.6961 12.6043 22.7749 12.5684 22.8615C12.5326 22.948 12.5141 23.0408 12.5141 23.1346C12.5384 25.5386 13.2178 27.8904 14.4792 29.9371C14.5079 29.9835 14.5211 30.0379 14.517 30.0922C14.513 30.1465 14.4918 30.1982 14.4566 30.2399C14.4213 30.2816 14.3738 30.311 14.3209 30.324C14.2679 30.337 14.2122 30.333 14.1616 30.3124C13.2133 29.9135 12.3518 29.3336 11.6253 28.6053C10.1365 27.1162 9.29946 25.097 9.2981 22.9912C9.29675 20.8855 10.1312 18.8652 11.6181 17.3743L21.5006 7.49273L31.3826 17.3743C32.8698 18.865 33.7045 20.8853 33.703 22.9912C33.7018 25.097 32.8647 27.1162 31.3757 28.6053C30.6492 29.3336 29.7877 29.9135 28.8396 30.3124C28.7889 30.333 28.7332 30.337 28.6802 30.324C28.6273 30.311 28.5798 30.2814 28.5445 30.2399C28.5093 30.1982 28.488 30.1465 28.484 30.092C28.4799 30.0377 28.4931 29.9833 28.5218 29.9369C29.7835 27.8904 30.4633 25.5386 30.4879 23.1346C30.4879 23.0408 30.4692 22.948 30.4332 22.8613C30.3971 22.7746 30.3444 22.696 30.2779 22.6296L25.6037 17.6717C25.557 17.6329 25.4985 17.6116 25.4378 17.6116C25.3773 17.6116 25.3186 17.6329 25.2721 17.6717C25.2255 17.7104 25.1942 17.7644 25.1833 17.824C25.1724 17.8837 25.1828 17.945 25.2127 17.9978C27.0281 21.283 25.467 26.0017 22.8637 28.6053L22.85 28.6191C22.4907 28.9745 22.0056 29.1738 21.5002 29.1736C20.9948 29.1734 20.5098 28.9738 20.1508 28.6182L20.1382 28.6053C17.5339 26.0017 15.9736 21.2835 17.7893 17.9985C17.8192 17.9457 17.8296 17.8844 17.8187 17.8247C17.8079 17.7651 17.7764 17.7111 17.7299 17.6724C17.6834 17.6336 17.6247 17.6123 17.5642 17.6123C17.5036 17.6123 17.4449 17.6336 17.3984 17.6724L12.7232 22.6298Z" fill="#F53838"/>
</g>
<defs>
<filter id="filter0_d_2_2571" x="0" y="0" width="43" height="44.2324" filterUnits="userSpaceOnUse" color-interpolation-filters="sRGB">
<feFlood flood-opacity="0" result="BackgroundImageFix"/>
<feColorMatrix in="SourceAlpha" type="matrix" values="0 0 0 0 0 0 0 0 0 0 0 0 0 0 0 0 0 0 127 0" result="hardAlpha"/>
<feOffset dy="4"/>
<feGaussianBlur stdDeviation="2"/>
<feComposite in2="hardAlpha" operator="out"/>
<feColorMatrix type="matrix" values="0 0 0 0 0 0 0 0 0 0 0 0 0 0 0 0 0 0 0.25 0"/>
<feBlend mode="normal" in2="BackgroundImageFix" result="effect1_dropShadow_2_2571"/>
<feBlend mode="normal" in="SourceGraphic" in2="effect1_dropShadow_2_2571" result="shape"/>
</filter>
</defs>
</svg>
